<svg xmlns="http://www.w3.org/2000/svg" width="1200" height="700" viewBox="0 0 1200 700">
  <rect width="1200" height="700" fill="#0f172a"/>
  <text x="600" y="55" fill="#e2e8f0" font-size="34" text-anchor="middle" font-family="Arial">Gantt Example - CDA Project</text>

  <g fill="#94a3b8" font-size="18" font-family="Arial">
    <text x="40" y="140">Needs</text>
    <text x="40" y="200">Functional specs</text>
    <text x="40" y="260">Technical specs</text>
    <text x="40" y="320">MVP dev</text>
    <text x="40" y="380">Tests</text>
    <text x="40" y="440">User acceptance</text>
    <text x="40" y="500">Final fixes</text>
    <text x="40" y="560">Mock defense</text>
  </g>

  <g stroke="#334155" stroke-width="1">
    <line x1="230" y1="100" x2="1140" y2="100"/>
    <line x1="230" y1="160" x2="1140" y2="160"/>
    <line x1="230" y1="220" x2="1140" y2="220"/>
    <line x1="230" y1="280" x2="1140" y2="280"/>
    <line x1="230" y1="340" x2="1140" y2="340"/>
    <line x1="230" y1="400" x2="1140" y2="400"/>
    <line x1="230" y1="460" x2="1140" y2="460"/>
    <line x1="230" y1="520" x2="1140" y2="520"/>
    <line x1="230" y1="580" x2="1140" y2="580"/>
  </g>

  <g fill="#22d3ee">
    <rect x="240" y="118" width="120" height="24" rx="6"/>
    <rect x="370" y="178" width="160" height="24" rx="6"/>
    <rect x="540" y="238" width="140" height="24" rx="6"/>
  </g>
  <g fill="#38bdf8">
    <rect x="690" y="298" width="270" height="24" rx="6"/>
    <rect x="970" y="358" width="120" height="24" rx="6"/>
  </g>
  <g fill="#14b8a6">
    <rect x="970" y="418" width="90" height="24" rx="6"/>
    <rect x="1065" y="478" width="70" height="24" rx="6"/>
  </g>
  <g fill="#f59e0b">
    <rect x="1140" y="538" width="20" height="24" rx="4"/>
  </g>

  <g fill="#cbd5e1" font-size="16" font-family="Arial" text-anchor="middle">
    <text x="260" y="85">W1</text>
    <text x="350" y="85">W2</text>
    <text x="440" y="85">W3</text>
    <text x="530" y="85">W4</text>
    <text x="620" y="85">W5</text>
    <text x="710" y="85">W6</text>
    <text x="800" y="85">W7</text>
    <text x="890" y="85">W8</text>
    <text x="980" y="85">W9</text>
    <text x="1070" y="85">W10</text>
    <text x="1160" y="85">W11</text>
  </g>
</svg>
