<svg xmlns="http://www.w3.org/2000/svg" width="1200" height="700" viewBox="0 0 1200 700">
  <rect width="1200" height="700" fill="#0b1324"/>
  <text x="600" y="55" fill="#e2e8f0" font-size="34" text-anchor="middle" font-family="Arial">Kanban Board (with WIP limits)</text>

  <g stroke="#334155" stroke-width="2" fill="#1e293b">
    <rect x="60" y="90" width="250" height="560" rx="12"/>
    <rect x="335" y="90" width="250" height="560" rx="12"/>
    <rect x="610" y="90" width="250" height="560" rx="12"/>
    <rect x="885" y="90" width="250" height="560" rx="12"/>
  </g>

  <g fill="#38bdf8" font-size="24" text-anchor="middle" font-family="Arial">
    <text x="185" y="130">To do</text>
    <text x="460" y="130">In progress (WIP 3)</text>
    <text x="735" y="130">Review (WIP 2)</text>
    <text x="1010" y="130">Done</text>
  </g>

  <g fill="#0f172a" stroke="#64748b" stroke-width="1.5">
    <rect x="85" y="170" width="200" height="90" rx="10"/>
    <rect x="85" y="275" width="200" height="90" rx="10"/>
    <rect x="360" y="170" width="200" height="90" rx="10"/>
    <rect x="360" y="275" width="200" height="90" rx="10"/>
    <rect x="360" y="380" width="200" height="90" rx="10"/>
    <rect x="635" y="170" width="200" height="90" rx="10"/>
    <rect x="635" y="275" width="200" height="90" rx="10"/>
    <rect x="910" y="170" width="200" height="90" rx="10"/>
    <rect x="910" y="275" width="200" height="90" rx="10"/>
  </g>

  <g fill="#f8fafc" font-size="18" font-family="Arial">
    <text x="100" y="205">API movies endpoint</text>
    <text x="100" y="310">Calendar screen</text>

    <text x="375" y="205">OAuth integration</text>
    <text x="375" y="310">Timezone conflict fix</text>
    <text x="375" y="415">Notification worker</text>

    <text x="650" y="205">PR #42 catalog tests</text>
    <text x="650" y="310">PR #43 refactor auth</text>

    <text x="925" y="205">Sign-up flow</text>
    <text x="925" y="310">Catalog management v1</text>
  </g>
</svg>
