<svg xmlns="http://www.w3.org/2000/svg" width="1400" height="900" viewBox="0 0 1400 900">
  <defs>
    <linearGradient id="bg" x1="0" y1="0" x2="1" y2="1">
      <stop offset="0%" stop-color="#0f172a"/>
      <stop offset="100%" stop-color="#0b3b47"/>
    </linearGradient>
    <marker id="arrow" markerWidth="10" markerHeight="10" refX="8" refY="3" orient="auto">
      <path d="M0,0 L0,6 L9,3 z" fill="#f59e0b"/>
    </marker>
  </defs>

  <rect width="1400" height="900" fill="url(#bg)"/>
  <text x="700" y="70" fill="#f8fafc" font-size="44" font-family="Arial" text-anchor="middle">Cycle Scrum</text>
  <text x="700" y="110" fill="#cbd5e1" font-size="24" font-family="Arial" text-anchor="middle">Sprint de 2 semaines - application de gestion de films</text>

  <g stroke="#38bdf8" stroke-width="2" fill="#1e293b">
    <rect x="80" y="370" width="210" height="110" rx="16"/>
    <rect x="340" y="170" width="240" height="110" rx="16"/>
    <rect x="650" y="170" width="230" height="110" rx="16"/>
    <rect x="950" y="370" width="260" height="110" rx="16"/>
    <rect x="650" y="610" width="230" height="110" rx="16"/>
    <rect x="340" y="610" width="240" height="110" rx="16"/>
  </g>

  <g fill="#f8fafc" font-family="Arial" text-anchor="middle">
    <text x="185" y="430" font-size="24">Backlog</text>
    <text x="185" y="460" font-size="24">Produit</text>

    <text x="460" y="230" font-size="24">Sprint</text>
    <text x="460" y="260" font-size="24">Planning</text>

    <text x="765" y="230" font-size="24">Sprint</text>
    <text x="765" y="260" font-size="24">Backlog</text>

    <text x="1080" y="430" font-size="24">Developpement</text>
    <text x="1080" y="460" font-size="24">+ Tests</text>

    <text x="765" y="670" font-size="24">Sprint</text>
    <text x="765" y="700" font-size="24">Review</text>

    <text x="460" y="670" font-size="24">Retrospective</text>
  </g>

  <g stroke="#f59e0b" stroke-width="5" fill="none" marker-end="url(#arrow)">
    <path d="M290 425 C 320 360, 335 320, 350 270"/>
    <path d="M580 225 L650 225"/>
    <path d="M880 270 C 930 320, 960 355, 980 405"/>
    <path d="M1030 485 C 980 560, 920 610, 860 645"/>
    <path d="M650 665 L580 665"/>
    <path d="M340 650 C 260 610, 215 550, 190 490"/>
  </g>

  <g fill="#cbd5e1" font-family="Arial" font-size="20">
    <text x="1090" y="530">Daily Stand-up</text>
    <text x="1040" y="555">(15 min / jour)</text>
  </g>

  <g stroke="#475569" stroke-width="2" fill="#0f172a">
    <rect x="1110" y="170" width="220" height="140" rx="12"/>
  </g>
  <g fill="#e2e8f0" font-family="Arial" font-size="18">
    <text x="1130" y="205">Definition of Done :</text>
    <text x="1130" y="235">- code relu</text>
    <text x="1130" y="260">- tests verts</text>
    <text x="1130" y="285">- doc maj</text>
  </g>
</svg>
